<svg width="44" height="30" viewBox="0 0 44 30" fill="none" xmlns="http://www.w3.org/2000/svg">
<g clip-path="url(#clip0_52_82)">
<path d="M21.884 5.83316C21.4801 5.83746 21.0719 5.86754 20.668 5.9191C21.3769 6.0652 22.0945 6.31012 22.7992 6.65387C23.2976 6.89879 23.7875 7.18668 24.2687 7.52184C24.5394 7.50035 24.8058 7.48746 25.068 7.48316C25.3773 7.47887 25.6781 7.48316 25.9789 7.50465C26.7566 7.56051 27.5 7.7023 28.1875 7.93434C26.4644 6.6152 24.3676 5.88473 22.2191 5.83746C22.1031 5.83316 22.0043 5.83316 21.884 5.83316ZM19.3703 6.58082H19.1726C18.9105 6.58941 18.6484 6.6152 18.3949 6.66246C19.0137 6.97613 19.6797 7.49605 20.3844 8.17926L20.582 8.37691C21.4027 8.06754 22.2277 7.83551 23.0355 7.68941C22.8379 7.5734 22.6445 7.47027 22.4469 7.37574C21.3984 6.86441 20.3543 6.59371 19.3703 6.58082ZM16.8824 7.22105C16.7019 7.34996 16.5558 7.64215 16.5215 8.18355C16.4828 8.74215 16.573 9.52031 16.7965 10.427C17.2519 10.0961 17.7332 9.78242 18.2402 9.49023C18.7473 9.19762 19.2586 8.93551 19.7699 8.70777C19.0953 8.05895 18.4723 7.59488 17.9695 7.34566C17.7074 7.21676 17.4926 7.1566 17.3207 7.13512C17.166 7.11621 17.0027 7.15273 16.8824 7.22105ZM15.7137 8.20934C14.8938 9.18043 14.4151 10.5172 14.3073 12.077C14.2923 12.2918 14.2845 12.5152 14.2845 12.743C14.8173 12.1156 15.4258 11.5184 16.109 10.9598C16.0832 10.8695 16.0574 10.7793 16.0359 10.6891C15.7953 9.73945 15.6793 8.90113 15.7137 8.20934ZM25.257 8.28238C25.9015 8.83668 26.5203 9.46875 27.0918 10.1734C27.2121 10.1391 27.3324 10.1047 27.4527 10.0746C28.3465 9.84258 29.15 9.71797 29.8332 9.75664H29.8375C28.8664 8.90973 27.5086 8.41559 25.923 8.30816C25.7039 8.29098 25.4848 8.28238 25.257 8.28238ZM24.0496 8.35113C23.1215 8.45426 22.1547 8.6734 21.1836 9.01285C21.8711 9.77383 22.5801 10.6719 23.2805 11.673C24.3117 11.1789 25.3215 10.7578 26.2668 10.4355C25.575 9.62344 24.823 8.92262 24.0496 8.35113ZM20.3758 9.32695C19.7957 9.56758 19.2156 9.85547 18.6398 10.1863C18.0683 10.5172 17.5312 10.8738 17.0285 11.2563C17.3336 12.2574 17.7676 13.3832 18.3219 14.5691C19.2973 13.8902 20.3285 13.25 21.3726 12.6699C21.7637 12.4508 22.159 12.2402 22.5543 12.0383C21.8195 10.9941 21.0762 10.0746 20.3758 9.32695ZM13.9369 9.8082C12.2976 11.9438 11.5715 14.6594 11.9225 17.3277C12.0648 16.6188 12.3114 15.9012 12.6543 15.2008C12.8975 14.7023 13.1892 14.2082 13.5244 13.727C13.4754 13.1426 13.4685 12.5711 13.5072 12.0168C13.5609 11.2391 13.7049 10.4957 13.9369 9.8082ZM29.5754 10.5516C29.0512 10.5559 28.3937 10.659 27.6547 10.8523C27.6418 10.8566 27.6289 10.8609 27.6203 10.8609C27.934 11.2992 28.2305 11.759 28.5098 12.2402C28.8019 12.7473 29.0598 13.2586 29.2875 13.7742C29.9363 13.0996 30.4047 12.4723 30.6539 11.9695C30.8988 11.4625 30.9074 11.1359 30.8086 10.9383C30.6453 10.732 30.3273 10.5859 29.7902 10.5559C29.7215 10.5559 29.6484 10.5516 29.5754 10.5516ZM26.7996 11.1059C25.8543 11.4109 24.8101 11.8363 23.7402 12.3477C24.1484 12.9664 24.5523 13.6152 24.9476 14.2984C25.3687 15.0246 25.7512 15.7508 26.0992 16.4555C27.0875 15.7551 27.9555 15.0461 28.673 14.3758C28.4324 13.7957 28.1445 13.2156 27.8137 12.6398C27.5 12.0984 27.1605 11.5871 26.7996 11.1059ZM16.3582 11.802C15.5762 12.4723 14.9037 13.1984 14.3515 13.9504C14.4654 14.9816 14.7245 16.0559 15.1319 17.1387C15.2608 17.0141 15.3914 16.8895 15.5289 16.7691C16.1777 16.1805 16.891 15.6004 17.6558 15.0418C17.1187 13.8988 16.6805 12.8031 16.3582 11.802ZM31.3371 12.3949C31.0191 13.0137 30.4992 13.6797 29.816 14.3844C29.7515 14.4488 29.6871 14.5133 29.6226 14.582C29.932 15.4027 30.1598 16.2277 30.3101 17.0355C30.4219 16.8379 30.525 16.6445 30.6238 16.4469C31.307 15.0461 31.5648 13.6453 31.3371 12.3949ZM23.014 12.7043C22.5973 12.9148 22.1762 13.1383 21.7637 13.3703C20.7023 13.959 19.6539 14.6164 18.6742 15.3039C19.0008 15.957 19.3574 16.6273 19.7441 17.302C20.1781 18.0496 20.6293 18.7629 21.0805 19.4332C21.8023 19.0809 22.5414 18.6898 23.289 18.2559L23.2976 18.2516C24.0496 17.8176 24.7629 17.3707 25.4332 16.9195C25.0808 16.1934 24.6855 15.45 24.2515 14.698C23.8476 14.002 23.4308 13.3316 23.014 12.7043ZM32.0762 14.6723C31.9344 15.3813 31.6894 16.0988 31.3457 16.7992C31.1008 17.2977 30.8086 17.7875 30.4734 18.2687C30.525 18.8531 30.5293 19.4289 30.4906 19.9789C30.439 20.7609 30.293 21.5043 30.0609 22.1918C31.7023 20.0563 32.4285 17.3406 32.0762 14.6723ZM13.6898 14.9645C13.5768 15.1578 13.4715 15.3555 13.3753 15.5531C12.5894 17.1645 12.3698 18.7672 12.7952 20.1508C13.1579 19.3559 13.7551 18.5566 14.5114 17.7574C14.1333 16.8207 13.8591 15.884 13.6898 14.9645ZM28.9824 15.1836C28.2562 15.841 27.4055 16.5199 26.4515 17.1945C26.9414 18.2516 27.341 19.2656 27.6418 20.198C28.4195 19.5277 29.0941 18.8016 29.6484 18.0496C29.5453 17.1215 29.3219 16.1547 28.9824 15.1836ZM18.0125 15.7766C17.3121 16.2965 16.6547 16.8293 16.066 17.3621C15.8555 17.5555 15.6535 17.7488 15.4601 17.9422C15.675 18.4148 15.9156 18.8875 16.1863 19.3559C16.5129 19.9316 16.8738 20.4688 17.2562 20.9715C18.1973 20.6836 19.2414 20.284 20.3457 19.777C19.9074 19.1238 19.4734 18.4277 19.0523 17.7016C18.6785 17.0527 18.3305 16.4082 18.0125 15.7766ZM25.7812 17.6543C25.1238 18.0926 24.4277 18.5266 23.7015 18.9477C22.9711 19.3688 22.2492 19.7512 21.5445 20.0992C22.2449 21.0875 22.9496 21.9598 23.6199 22.673C24.2043 22.4324 24.7844 22.1445 25.3558 21.8137C25.9273 21.4828 26.4687 21.1262 26.9715 20.7395C26.6836 19.8027 26.284 18.7586 25.7812 17.6543ZM14.8672 18.5695C14.034 19.5105 13.4728 20.4172 13.2894 21.1863C13.4393 21.3281 13.7152 21.4484 14.1823 21.4785C14.7434 21.5172 15.516 21.4227 16.4269 21.1992C16.0961 20.7437 15.7781 20.2625 15.4859 19.7598C15.2625 19.3645 15.0549 18.9691 14.8672 18.5695ZM29.7129 19.257C29.1801 19.8801 28.5699 20.4816 27.891 21.0402C27.9168 21.1305 27.9383 21.2207 27.9598 21.3109C28.2004 22.2605 28.3164 23.0984 28.282 23.7902C29.1027 22.8234 29.584 21.4828 29.6914 19.923C29.7086 19.7082 29.7129 19.4848 29.7129 19.257ZM20.8055 20.4516C19.7484 20.9414 18.7344 21.341 17.8019 21.6418C18.4723 22.4195 19.1984 23.0941 19.9504 23.6484C20.8785 23.5453 21.841 23.3262 22.8164 22.9867C22.1547 22.2605 21.4758 21.4055 20.8055 20.4516ZM27.1992 21.573C26.7437 21.9039 26.2625 22.2176 25.7598 22.5098C25.2527 22.802 24.7414 23.0598 24.2258 23.2918C24.9004 23.9363 25.5234 24.4047 26.0305 24.6539C26.516 24.8902 26.8426 24.9117 27.0445 24.8215C27.0703 24.8086 27.0961 24.7914 27.1176 24.7785C27.2937 24.6496 27.4398 24.3574 27.4785 23.816C27.5172 23.2574 27.4226 22.4797 27.1992 21.573ZM16.9598 21.891C16.8695 21.9168 16.7793 21.9383 16.689 21.9641C15.7394 22.2004 14.9024 22.3164 14.208 22.282C15.1783 23.107 16.5172 23.584 18.0726 23.6914C18.2918 23.7086 18.5152 23.7129 18.743 23.7129C18.1156 23.1801 17.5183 22.5699 16.9598 21.891ZM23.418 23.6184C22.593 23.932 21.7723 24.1598 20.9644 24.3102C21.1578 24.4219 21.3555 24.5293 21.5531 24.6238C22.9539 25.307 24.3547 25.5648 25.6051 25.3371C24.9863 25.0191 24.3203 24.5035 23.6156 23.816C23.5512 23.7559 23.4824 23.6871 23.418 23.6184ZM15.8082 24.0652C17.9437 25.7023 20.6594 26.4328 23.3277 26.0805C22.6187 25.9387 21.9012 25.6895 21.2008 25.3457C20.7023 25.1008 20.2082 24.8129 19.7269 24.4777C19.1426 24.525 18.5711 24.5293 18.0168 24.4949C17.239 24.4391 16.4957 24.293 15.8082 24.0652Z" fill="#2BC3AE"/>
<path d="M33.0087 16.3914C32.9954 16.4099 32.9874 16.4318 32.9856 16.4545C32.9839 16.4772 32.9884 16.5 32.9986 16.5204L33.8865 18.2861C33.8956 18.3042 33.9089 18.3198 33.9253 18.3315C33.9417 18.3433 33.9608 18.3509 33.9808 18.3537C34.0008 18.3565 34.0211 18.3545 34.0402 18.3477C34.0592 18.3409 34.0763 18.3296 34.09 18.3147L35.4302 16.8621C35.4457 16.8454 35.4562 16.8247 35.4608 16.8023C35.4653 16.78 35.4637 16.7568 35.456 16.7354C35.4484 16.7139 35.435 16.6949 35.4173 16.6805C35.3996 16.6661 35.3783 16.6568 35.3558 16.6536L33.1276 16.3405C33.1051 16.3373 33.082 16.3404 33.061 16.3493C33.0401 16.3583 33.0219 16.3729 33.0087 16.3914Z" fill="white"/>
<path d="M33.8166 16.7549C33.9766 15.2328 33.8383 13.7721 33.4016 12.373C32.9649 10.9738 32.3003 9.72318 31.4078 8.62108C30.5153 7.51898 29.4302 6.6089 28.1524 5.89085C26.8747 5.17279 25.4747 4.73377 23.9525 4.57379L24.0353 3.78646C25.6666 3.95792 27.1663 4.42759 28.5344 5.19546C29.9025 5.96334 31.0656 6.93893 32.0238 8.12224C32.9821 9.30555 33.6945 10.6461 34.1612 12.1439C34.6278 13.6417 34.7754 15.2063 34.6039 16.8377L33.8166 16.7549Z" fill="white"/>
<path d="M11.2581 15.8753C11.2714 15.8568 11.2793 15.835 11.2811 15.8122C11.2829 15.7895 11.2784 15.7667 11.2681 15.7463L10.3802 13.9806C10.3711 13.9625 10.3578 13.947 10.3414 13.9352C10.325 13.9234 10.306 13.9158 10.286 13.913C10.266 13.9102 10.2456 13.9123 10.2265 13.9191C10.2075 13.9258 10.1904 13.9371 10.1767 13.952L8.83652 15.4046C8.82106 15.4214 8.81048 15.442 8.80593 15.4644C8.80138 15.4867 8.80302 15.5099 8.81069 15.5314C8.81836 15.5529 8.83176 15.5718 8.84943 15.5862C8.86711 15.6006 8.88839 15.6099 8.91097 15.6131L11.1391 15.9263C11.1617 15.9294 11.1847 15.9264 11.2057 15.9174C11.2267 15.9084 11.2448 15.8939 11.2581 15.8753Z" fill="white"/>
<path d="M10.4501 15.5118C10.2901 17.034 10.4285 18.4946 10.8652 19.8938C11.3019 21.2929 11.9665 22.5435 12.8589 23.6456C13.7514 24.7478 14.8365 25.6578 16.1143 26.3759C17.3921 27.0939 18.792 27.533 20.3142 27.6929L20.2314 28.4803C18.6001 28.3088 17.1004 27.8391 15.7323 27.0713C14.3643 26.3034 13.2011 25.3278 12.2429 24.1445C11.2847 22.9612 10.5722 21.6206 10.1056 20.1228C9.63891 18.625 9.49131 17.0604 9.66278 15.4291L10.4501 15.5118Z" fill="white"/>
</g>
<defs>
<clipPath id="clip0_52_82">
<rect width="44" height="30" fill="white"/>
</clipPath>
</defs>
</svg>
